<?xml version="1.0" standalone="no"?>
<!DOCTYPE svg PUBLIC "-//W3C//DTD SVG 20010904//EN"
 "http://www.w3.org/TR/2001/REC-SVG-20010904/DTD/svg10.dtd">
<svg version="1.0" xmlns="http://www.w3.org/2000/svg"
 width="1660.000000pt" height="2173.000000pt" viewBox="0 0 1660.000000 2173.000000"
 preserveAspectRatio="xMidYMid meet">

<g transform="translate(0.000000,2173.000000) scale(0.100000,-0.100000)"
fill="#000000" stroke="none">
<path d="M6980 18505 l-1305 -1305 -1853 0 -1852 0 0 -1852 0 -1853 -985 -985
-985 -985 0 -655 0 -655 985 -985 985 -985 0 -1853 0 -1852 1852 0 1853 0
1305 -1305 c718 -718 1312 -1305 1320 -1305 8 0 602 587 1320 1305 l1305 1305
1853 0 1852 0 0 1852 0 1853 985 985 985 985 0 655 0 655 -985 985 -985 985 0
1853 0 1852 -1852 0 -1853 0 -1305 1305 c-718 718 -1312 1305 -1320 1305 -8 0
-602 -587 -1320 -1305z m884 -1971 c15 -6 16 -250 15 -2678 -2 -2572 -6 -3130
-28 -3726 -12 -293 -20 -386 -46 -490 -9 -36 -21 -87 -27 -115 -5 -27 -23 -90
-39 -140 -16 -49 -34 -103 -39 -120 -22 -75 -45 -131 -57 -143 -7 -7 -13 -20
-13 -27 0 -14 -25 -77 -41 -105 -5 -8 -20 -39 -34 -69 -14 -30 -40 -78 -59
-105 -18 -28 -36 -59 -39 -69 -7 -19 -62 -95 -168 -235 -138 -181 -400 -423
-569 -526 -25 -15 -72 -45 -105 -66 -78 -51 -298 -160 -323 -160 -5 0 -15 -6
-21 -14 -7 -8 -27 -18 -44 -21 -41 -8 -119 -33 -179 -56 -26 -11 -64 -19 -86
-19 -21 0 -52 -4 -68 -10 -33 -11 -185 -37 -294 -50 -93 -11 -518 -11 -620 -1
-81 9 -192 26 -280 43 -30 5 -83 14 -117 18 -35 4 -68 12 -75 17 -7 6 -47 20
-88 33 -77 23 -95 31 -283 119 -59 28 -110 51 -112 51 -2 0 -24 14 -48 30 -25
17 -49 30 -54 30 -5 0 -18 7 -28 15 -11 9 -56 39 -100 68 -76 50 -153 107
-220 161 -44 37 -205 197 -243 242 -17 21 -47 57 -66 79 -18 22 -50 65 -71 95
-71 102 -80 114 -92 128 -7 7 -13 18 -13 24 0 5 -13 29 -28 52 -30 45 -135
256 -147 296 -4 14 -13 32 -19 40 -7 8 -23 49 -36 90 -13 41 -29 84 -37 95 -7
11 -13 27 -13 36 0 20 -36 144 -54 184 -14 31 -31 106 -47 205 -5 30 -15 80
-23 110 -14 54 -35 196 -55 375 -6 50 -15 113 -20 140 -13 66 -13 856 0 920 6
28 16 120 23 205 21 246 36 371 52 430 8 30 19 87 24 125 14 101 36 206 48
235 18 43 41 124 48 171 4 24 13 51 20 59 7 9 24 57 37 107 13 50 28 98 34
105 5 7 20 45 32 83 12 39 31 88 41 110 34 73 50 113 50 125 0 7 7 24 15 38
23 43 55 120 55 133 0 7 6 20 14 28 8 9 24 41 36 71 12 30 26 62 31 70 5 8 14
26 20 40 22 54 54 117 81 161 15 25 28 51 28 57 0 6 16 34 35 63 19 30 35 60
35 67 0 7 16 34 35 59 19 25 35 50 35 55 0 6 13 27 30 48 16 20 34 48 40 61 5
13 26 46 45 73 65 90 139 191 147 201 4 5 27 35 51 65 23 30 49 62 57 71 8 9
29 33 45 54 130 164 422 471 626 657 164 149 253 219 539 423 41 30 98 70 125
90 28 20 79 55 115 78 65 41 78 51 105 74 7 7 24 18 37 23 13 6 34 17 48 25
14 8 35 15 46 15 22 0 22 -3 28 -282 3 -156 9 -1511 13 -3013 l8 -2730 49
-100 c72 -146 121 -227 172 -281 61 -64 84 -94 84 -109 0 -17 -58 -51 -101
-60 -19 -4 -39 -11 -44 -16 -29 -22 -169 -43 -323 -46 -171 -5 -183 -3 -317
52 -91 37 -175 87 -239 144 -60 52 -166 163 -166 173 0 6 -14 27 -30 48 -17
22 -44 67 -60 102 -17 35 -34 70 -39 78 -41 70 -40 38 -51 1305 -20 2154 -23
2339 -40 2342 -9 2 -27 -17 -45 -47 -16 -27 -33 -50 -37 -50 -4 0 -10 -10 -14
-22 -3 -13 -15 -36 -26 -51 -42 -59 -191 -357 -280 -557 -10 -25 -26 -57 -34
-72 -8 -14 -14 -35 -14 -45 0 -10 -6 -27 -13 -38 -18 -29 -73 -174 -88 -237
-5 -20 -15 -52 -23 -70 -8 -18 -19 -58 -25 -88 -28 -135 -33 -156 -42 -166 -5
-6 -14 -47 -19 -90 -6 -43 -14 -92 -19 -109 -5 -16 -13 -50 -16 -75 -4 -25
-13 -70 -21 -100 -8 -30 -14 -79 -14 -110 0 -30 -7 -100 -15 -155 -17 -119
-21 -852 -5 -951 6 -34 14 -112 19 -175 5 -63 14 -134 20 -159 6 -25 18 -74
27 -110 9 -36 20 -88 24 -116 4 -28 14 -62 22 -75 8 -13 23 -51 33 -84 27 -90
156 -350 207 -415 200 -261 415 -433 663 -528 33 -13 74 -30 90 -37 17 -8 50
-17 75 -21 25 -3 63 -12 85 -19 72 -24 225 -38 360 -32 143 6 271 22 289 36 6
4 34 11 61 15 46 6 156 44 172 60 3 3 13 6 21 6 8 0 56 20 106 46 83 41 136
75 227 144 54 42 243 236 274 282 16 24 41 59 56 78 30 39 81 127 105 180 9
19 29 62 44 95 16 33 36 94 45 135 9 41 21 95 27 120 33 149 48 1186 56 4115
l7 2409 30 7 c17 4 50 12 75 18 25 6 68 17 95 25 43 13 128 29 269 51 21 4 52
12 70 20 34 14 200 35 371 45 61 4 115 7 122 8 6 1 18 -1 27 -4z m1101 -4
c170 -15 318 -35 341 -47 11 -7 49 -16 85 -21 117 -18 228 -41 246 -51 19 -11
74 -24 191 -47 40 -7 81 -18 91 -23 10 -6 61 -21 112 -35 52 -13 108 -31 124
-40 17 -9 36 -16 43 -16 15 0 125 -36 150 -49 9 -5 40 -17 67 -26 28 -10 87
-35 133 -56 46 -22 89 -39 97 -39 8 0 17 -5 20 -11 7 -10 91 -51 133 -64 12
-3 22 -10 22 -15 0 -4 10 -10 23 -14 12 -3 61 -28 110 -56 48 -27 94 -50 101
-50 8 0 21 -7 29 -14 8 -8 37 -28 64 -43 91 -51 288 -167 293 -173 3 -3 46
-32 95 -64 106 -69 146 -97 160 -108 6 -5 44 -35 86 -66 130 -99 322 -276 584
-538 301 -301 477 -513 678 -818 6 -10 17 -24 23 -30 6 -6 17 -23 25 -38 8
-14 39 -68 69 -118 69 -116 92 -157 142 -250 22 -41 46 -82 54 -91 8 -8 14
-18 14 -21 0 -4 25 -59 55 -123 30 -63 55 -120 55 -125 0 -6 4 -10 10 -10 5 0
14 -18 20 -40 6 -22 24 -66 39 -97 16 -32 32 -71 36 -88 3 -16 19 -57 35 -90
15 -33 35 -87 45 -120 10 -33 25 -71 33 -85 9 -13 21 -49 28 -80 27 -117 35
-146 48 -175 8 -16 22 -66 31 -110 9 -44 25 -109 36 -145 21 -74 44 -204 55
-300 3 -36 11 -76 16 -90 12 -29 34 -212 48 -395 6 -71 16 -148 23 -170 17
-56 17 -757 0 -800 -7 -16 -17 -86 -23 -155 -14 -174 -36 -343 -48 -366 -5
-10 -12 -44 -16 -74 -9 -83 -36 -231 -48 -265 -12 -35 -34 -126 -52 -210 -7
-33 -18 -70 -24 -81 -11 -21 -22 -59 -46 -166 -8 -32 -18 -64 -23 -70 -6 -7
-20 -47 -32 -88 -20 -66 -46 -134 -70 -180 -5 -9 -12 -31 -16 -50 -4 -19 -13
-46 -21 -60 -25 -46 -54 -119 -54 -134 0 -8 -5 -18 -11 -21 -5 -4 -21 -32 -35
-63 -40 -91 -168 -341 -183 -358 -5 -6 -23 -38 -39 -70 -17 -33 -42 -76 -56
-97 -14 -21 -26 -40 -26 -43 0 -5 -41 -66 -51 -74 -5 -4 -50 -79 -85 -141 -6
-11 -22 -32 -36 -47 -13 -15 -37 -47 -54 -72 -16 -25 -40 -57 -54 -73 -13 -16
-40 -50 -60 -77 -43 -59 -179 -228 -212 -262 -12 -13 -72 -78 -133 -143 -254
-273 -535 -519 -815 -712 -25 -17 -54 -40 -65 -50 -11 -10 -42 -32 -70 -47
-27 -16 -69 -43 -92 -60 -55 -41 -148 -99 -209 -131 -27 -14 -62 -35 -79 -45
-16 -11 -41 -24 -54 -30 -13 -6 -43 -24 -67 -39 -23 -16 -53 -32 -66 -36 -12
-5 -39 -18 -58 -30 -60 -37 -290 -145 -308 -145 -5 0 -15 -7 -22 -15 -7 -8
-19 -15 -27 -15 -15 0 -90 -31 -135 -55 -14 -8 -31 -15 -38 -15 -12 0 -88 -31
-133 -55 -16 -8 -38 -15 -50 -15 -12 0 -34 -6 -49 -14 -15 -8 -42 -17 -60 -21
-18 -4 -42 -13 -53 -20 -11 -7 -60 -23 -110 -35 -49 -12 -96 -27 -103 -33 -7
-5 -43 -16 -80 -23 -141 -26 -188 -36 -207 -47 -11 -6 -56 -16 -100 -23 -163
-25 -271 -43 -310 -53 -22 -6 -115 -14 -207 -17 -129 -6 -171 -4 -183 6 -13
11 -15 140 -15 1169 0 910 3 1161 13 1174 11 16 53 17 542 15 l530 -3 5 -535
c6 -604 -2 -559 86 -521 26 12 53 21 61 21 8 0 27 6 41 14 15 8 50 24 77 36
28 12 64 28 80 35 17 8 55 24 85 36 30 12 61 27 67 32 7 5 50 28 95 51 73 37
103 53 168 87 44 24 135 79 209 129 46 30 105 69 130 85 72 46 179 127 218
162 19 18 37 33 40 33 9 0 89 66 213 177 201 179 301 279 455 457 28 32 55 63
60 69 23 27 61 76 75 97 8 13 26 35 39 49 13 14 31 37 40 51 9 14 30 44 48 68
18 24 33 50 33 57 0 8 6 18 13 22 13 9 57 68 57 78 0 7 39 63 58 83 6 7 12 19
12 26 0 6 6 18 13 24 24 25 267 496 267 519 0 6 16 41 35 79 19 37 35 76 35
85 0 16 30 94 50 131 6 10 14 34 19 55 13 50 40 131 57 170 8 17 14 40 14 51
0 11 7 44 16 73 8 30 24 83 34 119 10 36 23 92 29 125 5 33 17 94 26 135 39
181 55 424 55 816 0 238 -23 694 -35 714 -4 6 -13 46 -20 88 -8 42 -18 95 -24
117 -6 22 -11 56 -11 75 0 19 -7 48 -15 64 -8 16 -18 47 -21 70 -4 22 -11 49
-15 58 -5 9 -13 43 -18 75 -5 32 -23 96 -40 143 -17 46 -31 90 -31 98 0 8 -6
28 -14 45 -38 84 -56 131 -56 144 0 7 -16 47 -35 87 -19 41 -35 77 -35 81 0
12 -162 335 -186 370 -13 20 -24 38 -24 41 0 9 -113 197 -149 249 -19 28 -50
73 -68 100 -18 28 -40 59 -48 70 -9 11 -56 74 -106 140 -85 114 -150 192 -229
276 -19 21 -57 63 -85 94 -74 83 -74 83 -175 175 -51 47 -105 96 -120 110 -47
43 -165 142 -236 197 -70 54 -83 63 -91 63 -5 0 -16 9 -25 19 -9 11 -49 40
-90 66 -114 74 -153 99 -158 106 -5 6 -23 16 -125 70 -33 18 -90 48 -127 68
-137 74 -321 161 -341 161 -9 0 -19 5 -22 10 -9 14 -111 58 -232 99 l-52 18
-23 -24 -23 -24 -8 -532 c-8 -442 -12 -536 -24 -555 l-15 -24 -511 7 c-282 4
-515 10 -518 14 -4 3 -10 549 -13 1213 -7 1158 -6 1207 11 1217 22 13 92 13
238 1z m605 -2900 c417 -8 593 -22 685 -54 22 -8 74 -24 115 -36 41 -12 89
-28 105 -35 66 -29 134 -55 146 -55 7 0 20 -6 28 -14 9 -7 47 -26 85 -41 39
-15 87 -38 108 -51 21 -13 41 -24 45 -24 5 0 35 -18 68 -40 33 -22 64 -40 68
-40 29 0 300 -205 435 -330 90 -82 226 -231 287 -315 17 -22 32 -42 35 -45 3
-3 19 -25 35 -50 16 -25 33 -47 36 -50 16 -14 189 -347 189 -364 0 -5 6 -17
13 -25 8 -9 24 -47 36 -86 12 -38 30 -88 41 -110 10 -22 26 -69 35 -105 16
-58 38 -135 65 -225 5 -16 14 -81 20 -142 6 -62 15 -124 20 -138 20 -53 33
-470 21 -693 -6 -117 -15 -221 -20 -231 -6 -10 -15 -55 -20 -101 -6 -46 -15
-97 -20 -114 -6 -17 -17 -53 -26 -81 -26 -82 -45 -148 -56 -190 -5 -21 -14
-44 -18 -50 -5 -5 -21 -46 -36 -90 -15 -44 -34 -87 -41 -96 -8 -8 -14 -21 -14
-28 0 -6 -12 -35 -27 -63 -16 -28 -40 -74 -55 -102 -15 -28 -28 -57 -28 -63 0
-7 -3 -13 -7 -13 -5 0 -21 -23 -37 -51 -16 -29 -36 -60 -45 -70 -9 -9 -32 -41
-51 -69 -33 -49 -50 -71 -130 -171 -53 -67 -284 -292 -332 -325 -24 -16 -50
-36 -58 -45 -22 -24 -126 -99 -205 -148 -38 -24 -88 -56 -110 -70 -35 -22
-245 -129 -285 -145 -8 -3 -22 -10 -30 -15 -8 -5 -49 -22 -90 -37 -41 -15 -80
-31 -85 -35 -6 -5 -31 -11 -55 -15 -25 -4 -57 -13 -72 -20 -15 -8 -34 -14 -43
-14 -10 0 -31 -6 -48 -14 -72 -32 -270 -55 -557 -66 -382 -15 -2075 -25 -2120
-13 -19 5 -36 17 -38 26 -3 15 29 69 54 92 6 5 47 55 90 110 43 55 81 102 84
105 4 3 13 16 20 29 7 14 17 30 22 35 4 6 20 25 34 41 14 17 41 53 60 80 19
28 57 82 85 120 28 39 67 95 87 125 20 30 42 61 49 68 7 7 13 17 13 22 0 5 27
47 61 94 71 100 48 91 304 106 99 6 188 13 198 16 16 5 17 87 17 1533 0 1278
2 1530 14 1540 9 8 160 10 542 9 l529 -3 5 -1530 c3 -841 8 -1535 12 -1541 8
-12 55 -7 73 6 6 4 26 11 45 15 44 8 152 44 165 54 6 5 24 11 40 15 27 6 76
26 115 47 8 4 39 20 69 34 60 28 168 92 191 112 8 7 49 39 90 70 87 67 166
143 236 228 90 109 141 188 208 320 50 99 96 219 96 252 0 8 6 24 14 36 14 21
24 65 45 207 41 267 41 394 -1 665 -6 39 -14 95 -19 125 -4 30 -14 70 -22 90
-8 19 -25 69 -36 111 -12 42 -47 125 -78 185 -31 60 -63 123 -71 139 -33 63
-211 300 -232 307 -5 2 -37 30 -72 64 -35 33 -87 77 -115 97 -29 21 -74 52
-100 70 -27 18 -55 36 -63 40 -8 4 -22 11 -30 16 -38 24 -169 79 -200 86 -19
4 -40 11 -46 16 -23 19 -163 48 -279 59 -259 25 -401 29 -957 29 l-578 1 0
514 c0 283 3 522 7 532 7 18 66 18 1263 -6z m-5795 -6101 c7 -10 64 -41 191
-103 33 -15 66 -32 74 -37 8 -5 26 -14 40 -19 14 -6 33 -14 42 -20 10 -5 34
-14 55 -19 21 -6 76 -24 123 -40 47 -17 103 -30 125 -31 22 0 50 -7 62 -15 12
-9 55 -20 95 -25 40 -6 96 -15 123 -20 28 -5 84 -9 125 -9 41 -1 102 -6 135
-11 33 -5 188 -15 345 -20 l285 -11 55 -37 c30 -20 57 -39 60 -42 8 -8 130
-90 135 -90 2 0 23 -13 47 -28 129 -85 174 -112 189 -112 9 0 34 -13 56 -29
22 -16 50 -32 64 -36 13 -4 45 -20 72 -36 26 -16 50 -29 54 -29 4 0 25 -9 47
-19 23 -11 86 -38 141 -61 55 -22 112 -47 127 -55 14 -8 32 -15 40 -15 7 0 47
-14 88 -31 41 -18 93 -35 115 -40 22 -4 81 -21 130 -37 99 -33 154 -48 230
-63 28 -6 55 -15 61 -20 6 -5 49 -14 95 -19 46 -6 97 -15 113 -20 16 -6 45
-10 65 -10 20 0 64 -7 96 -16 33 -8 91 -18 130 -22 l70 -7 0 -520 0 -520 -165
2 c-105 1 -189 7 -230 17 -85 20 -220 44 -295 52 -33 4 -72 13 -86 20 -15 7
-53 18 -85 24 -170 31 -205 38 -216 48 -7 5 -53 20 -103 32 -49 12 -101 27
-115 35 -14 7 -42 16 -63 20 -20 4 -39 11 -42 15 -3 5 -24 11 -48 15 -23 4
-51 13 -62 20 -11 6 -56 24 -100 40 -44 15 -84 30 -90 34 -5 4 -37 17 -70 30
-33 13 -87 36 -120 51 -33 15 -71 31 -84 35 -13 4 -50 22 -82 41 -31 19 -64
34 -73 34 -8 0 -18 5 -22 11 -3 6 -32 23 -63 38 -31 15 -74 38 -96 52 -22 14
-52 32 -67 40 -14 8 -68 39 -118 69 -50 30 -104 61 -118 69 -15 8 -29 17 -32
20 -6 7 -39 30 -150 106 -96 65 -238 170 -273 200 -7 6 -48 40 -92 75 -44 36
-87 72 -96 80 -8 8 -42 38 -74 65 -160 135 -352 326 -511 507 -59 68 -113 128
-119 133 -6 6 -39 44 -72 87 -33 42 -66 82 -72 90 -6 7 -25 28 -41 47 -17 19
-30 38 -30 43 0 12 68 10 75 -3z"/>
</g>
</svg>
