<?xml version="1.0" standalone="no"?>
<!DOCTYPE svg PUBLIC "-//W3C//DTD SVG 20010904//EN"
 "http://www.w3.org/TR/2001/REC-SVG-20010904/DTD/svg10.dtd">
<svg version="1.0" xmlns="http://www.w3.org/2000/svg"
 width="2500.000000pt" height="492.000000pt" viewBox="0 0 2500.000000 492.000000"
 preserveAspectRatio="xMidYMid meet">

<g transform="translate(0.000000,492.000000) scale(0.100000,-0.100000)"
fill="#000000" stroke="none">
<path d="M4730 3473 c0 -42 0 -42 43 -47 23 -3 75 -7 114 -10 40 -3 85 -11
100 -18 54 -26 54 -33 63 -798 6 -487 12 -720 20 -755 43 -178 171 -307 372
-375 141 -48 221 -61 420 -67 254 -8 428 16 588 79 132 52 271 169 328 276 68
129 82 243 83 704 1 552 12 867 31 904 19 36 69 54 145 54 28 0 71 3 97 6 l46
7 0 41 0 41 -390 0 -390 0 0 -41 0 -41 46 -7 c26 -3 70 -6 98 -7 67 0 115 -18
139 -51 19 -25 21 -49 28 -270 17 -540 6 -995 -26 -1133 -43 -186 -154 -289
-373 -344 -162 -42 -415 -44 -576 -5 -151 36 -269 111 -315 201 -10 21 -27 65
-38 98 -17 56 -18 108 -18 740 0 774 -4 733 79 754 25 6 73 12 108 12 35 1 77
4 93 8 27 6 30 10 30 46 l0 39 -473 0 -472 1 0 -42z"/>
<path d="M7364 3511 c-7 -8 -4 -81 4 -82 147 -10 225 -19 248 -30 61 -30 59 3
62 -882 2 -528 -1 -827 -7 -865 -17 -93 -34 -101 -233 -118 l-78 -6 0 -42 0
-42 475 1 475 0 0 41 0 42 -77 6 c-212 18 -220 22 -234 142 -15 122 -7 1641 8
1676 21 47 52 58 180 68 65 5 119 10 121 10 1 0 2 19 2 43 l0 42 -471 0 c-259
0 -473 -2 -475 -4z"/>
<path d="M8474 3511 c-2 -2 -4 -21 -4 -42 0 -43 0 -43 132 -53 73 -6 121 -25
133 -53 31 -71 28 -1615 -3 -1761 -6 -28 -17 -39 -67 -65 -52 -28 -60 -36 -60
-61 l0 -29 570 -1 c613 -1 658 2 830 55 444 135 757 489 826 933 28 174 -7
401 -85 554 -119 235 -347 417 -601 480 -184 46 -194 47 -948 47 -395 0 -721
-2 -723 -4z m1311 -136 c126 -22 210 -49 307 -97 67 -33 101 -59 174 -133 75
-75 99 -107 132 -176 66 -136 83 -211 89 -391 6 -176 -5 -279 -44 -403 -79
-253 -244 -436 -472 -524 -149 -58 -260 -74 -506 -75 -221 -1 -359 8 -385 24
-13 8 -15 123 -18 807 -2 439 0 835 3 880 l7 82 42 6 c181 27 519 27 671 0z"/>
<path d="M11060 3473 c0 -48 -4 -46 135 -58 74 -6 106 -21 127 -57 27 -48 21
-1707 -7 -1779 -3 -9 -33 -29 -65 -44 -54 -26 -60 -32 -60 -59 l0 -31 573 0
c512 0 583 2 672 18 542 100 929 497 987 1014 50 442 -222 848 -656 982 -175
54 -195 55 -978 56 l-728 0 0 -42z m1315 -98 c115 -20 252 -66 335 -112 39
-22 98 -69 146 -118 66 -66 90 -99 128 -176 65 -132 87 -224 93 -395 7 -170
-12 -301 -62 -442 -147 -410 -473 -579 -1074 -558 -196 6 -269 16 -281 36 -21
33 -24 1691 -4 1744 16 43 514 57 719 21z"/>
<path d="M14504 3511 c-2 -2 -4 -19 -4 -37 0 -42 21 -54 97 -55 32 0 78 -6
103 -12 38 -10 48 -19 65 -52 19 -38 20 -64 23 -625 3 -531 -9 -1079 -24
-1138 -5 -15 -26 -33 -65 -53 -54 -27 -59 -32 -59 -62 l0 -32 573 0 c638 1
663 3 867 71 405 135 698 465 776 872 19 99 18 284 -2 380 -67 324 -318 595
-639 690 -188 56 -192 56 -978 57 -401 0 -731 -2 -733 -4z m1311 -136 c311
-54 504 -183 619 -412 138 -276 121 -690 -40 -981 -24 -43 -70 -100 -128 -158
-77 -76 -107 -99 -186 -138 -182 -89 -383 -122 -685 -112 -186 6 -278 15 -293
30 -9 10 -16 1441 -7 1623 l7 141 51 8 c190 27 508 26 662 -1z"/>
<path d="M17790 2849 c-143 -22 -304 -94 -439 -197 -92 -70 -136 -136 -181
-269 -30 -89 -34 -112 -38 -244 -4 -125 -1 -157 17 -230 64 -252 223 -408 485
-474 235 -59 470 -34 686 73 91 45 96 49 122 102 22 44 24 58 14 68 -10 10
-31 4 -108 -33 -225 -106 -437 -114 -623 -23 -87 42 -174 122 -213 197 -40 74
-72 195 -72 273 l0 58 358 0 c418 0 682 16 709 44 3 3 5 47 5 98 0 169 -48
296 -148 394 -68 68 -169 123 -266 148 -77 20 -228 27 -308 15z m201 -118
c148 -56 237 -220 227 -416 l-3 -60 -185 -3 c-102 -2 -276 0 -387 3 l-203 7 0
59 c0 170 83 328 205 392 98 51 240 58 346 18z"/>
<path d="M19005 2838 c-27 -5 -102 -17 -165 -26 l-115 -17 2 -34 c1 -35 17
-53 39 -44 6 2 31 -1 55 -7 76 -21 255 -214 472 -509 l76 -104 -122 -136
c-335 -375 -377 -414 -472 -433 -55 -11 -55 -11 -55 -47 l0 -37 141 1 140 1
128 172 c126 168 245 315 293 359 l23 22 139 -191 c77 -105 172 -230 211 -277
l72 -87 204 1 204 1 0 34 c0 32 -2 34 -50 45 -69 15 -94 34 -184 139 -93 109
-350 432 -392 493 l-30 43 74 88 c92 108 345 371 397 412 22 17 58 34 82 38
42 7 43 9 43 45 l0 38 -122 0 -123 0 -119 -153 c-137 -175 -299 -368 -309
-368 -4 1 -34 40 -66 88 -104 152 -222 306 -296 385 -78 83 -79 84 -175 65z"/>
</g>
</svg>
