<?xml version="1.0" standalone="no"?>
<!DOCTYPE svg PUBLIC "-//W3C//DTD SVG 20010904//EN"
 "http://www.w3.org/TR/2001/REC-SVG-20010904/DTD/svg10.dtd">
<svg version="1.0" xmlns="http://www.w3.org/2000/svg"
 width="2000.000000pt" height="2707.000000pt" viewBox="0 0 2000.000000 2707.000000"
 preserveAspectRatio="xMidYMid meet">

<g transform="translate(0.000000,2707.000000) scale(0.100000,-0.100000)"
fill="#000000" stroke="none">
<path d="M8495 22270 l-1490 -1490 -2111 0 c-1628 0 -2113 -3 -2122 -12 -9 -9
-12 -494 -12 -2122 l0 -2111 -1380 -1380 -1380 -1380 0 -235 0 -235 1380
-1380 1380 -1380 0 -2111 c0 -1628 3 -2113 12 -2122 9 -9 494 -12 2122 -12
l2111 0 1490 -1490 c820 -819 1497 -1490 1505 -1490 8 0 685 671 1505 1490
l1490 1490 2111 0 c1628 0 2113 3 2122 12 9 9 12 494 12 2122 l0 2111 1380
1380 1380 1380 0 235 0 235 -1380 1380 -1380 1380 0 2111 c0 1628 -3 2113 -12
2122 -9 9 -494 12 -2122 12 l-2111 0 -1490 1490 c-820 820 -1497 1490 -1505
1490 -8 0 -686 -671 -1505 -1490z m1021 -5317 c-3 -1682 -11 -3310 -16 -3618
-11 -591 -31 -1083 -48 -1125 -5 -14 -12 -47 -16 -73 -4 -26 -13 -62 -21 -80
-7 -18 -16 -54 -20 -82 -7 -54 -40 -168 -57 -200 -6 -11 -17 -40 -24 -65 -24
-83 -47 -145 -60 -160 -7 -8 -16 -28 -20 -45 -10 -41 -51 -132 -62 -139 -6 -3
-13 -18 -16 -32 -4 -14 -27 -60 -52 -102 -25 -43 -51 -86 -57 -97 -38 -65
-156 -237 -189 -275 -7 -8 -27 -32 -43 -55 -51 -67 -202 -223 -325 -333 -64
-58 -250 -202 -307 -237 -26 -16 -62 -39 -80 -50 -71 -45 -195 -114 -216 -121
-12 -3 -29 -12 -37 -18 -8 -7 -49 -25 -90 -41 -41 -16 -82 -34 -90 -41 -8 -7
-28 -15 -45 -19 -48 -11 -157 -45 -194 -61 -18 -8 -63 -19 -100 -24 -36 -5
-97 -16 -136 -24 -38 -9 -87 -16 -107 -16 -21 0 -59 -8 -85 -17 -42 -16 -93
-18 -438 -18 -330 0 -402 3 -465 17 -41 9 -106 20 -145 23 -38 4 -80 11 -95
17 -14 5 -60 13 -104 18 -43 5 -84 14 -90 19 -13 11 -138 54 -190 66 -16 3
-41 15 -54 26 -14 10 -30 19 -38 19 -7 0 -25 6 -41 14 -15 8 -39 19 -53 25
-14 6 -32 15 -40 20 -8 5 -49 25 -90 45 -87 41 -178 91 -200 110 -8 7 -37 26
-65 42 -27 15 -52 31 -55 35 -3 3 -25 19 -50 34 -25 15 -68 48 -96 72 -28 23
-55 43 -59 43 -4 0 -18 10 -30 23 -12 12 -73 72 -136 133 -63 61 -130 130
-149 153 -19 23 -51 61 -71 84 -19 23 -55 71 -80 107 -25 36 -61 88 -80 115
-19 28 -50 75 -67 105 -18 30 -37 62 -42 70 -5 8 -23 44 -40 80 -17 36 -37 76
-45 90 -8 14 -24 52 -36 85 -13 33 -28 65 -35 70 -6 6 -14 21 -18 35 -28 102
-51 167 -62 181 -8 8 -18 38 -24 65 -5 27 -16 67 -24 89 -8 22 -15 49 -16 60
0 11 -7 28 -15 39 -8 10 -17 39 -21 65 -3 25 -12 69 -19 96 -8 28 -17 74 -20
104 -4 30 -13 69 -21 87 -8 18 -18 68 -23 111 -5 43 -14 116 -20 163 -6 47
-15 126 -21 175 -5 50 -14 110 -19 135 -13 58 -13 1007 0 1075 9 48 16 116 39
370 20 222 30 300 45 345 7 25 17 72 20 105 3 33 13 94 22 135 25 123 26 126
79 290 8 25 14 56 14 70 0 14 9 43 19 63 20 39 54 145 66 207 4 19 13 42 20
50 7 8 18 31 24 50 18 61 49 146 60 166 16 29 51 115 51 126 0 9 41 103 65
148 7 14 16 39 19 57 4 17 13 36 20 42 7 6 26 43 41 83 16 40 35 80 42 89 7 8
13 19 13 24 0 5 9 27 19 49 11 23 25 52 31 66 6 14 22 43 35 65 14 22 29 51
35 65 5 14 14 32 20 40 27 43 60 103 65 121 4 12 30 56 59 98 54 82 58 88 106
166 35 57 73 113 93 135 7 8 26 35 42 60 35 53 266 346 357 450 177 206 583
613 728 729 30 25 79 67 108 93 30 26 79 65 110 85 31 21 86 60 122 88 36 28
76 59 90 68 14 9 72 50 130 92 58 41 157 109 220 152 63 42 121 83 128 89 6 7
22 16 35 20 12 4 33 15 46 25 13 11 36 19 51 19 l27 0 8 -237 c4 -131 10
-1676 14 -3433 7 -3019 8 -3197 25 -3235 34 -77 69 -145 76 -150 4 -3 10 -17
13 -32 3 -16 22 -52 42 -81 19 -30 35 -58 35 -63 0 -5 36 -48 80 -95 44 -48
80 -95 80 -105 0 -11 0 -22 1 -26 2 -17 -120 -70 -211 -93 -144 -35 -186 -40
-336 -40 -162 0 -229 12 -319 55 -16 7 -52 24 -80 36 -54 23 -176 101 -210
134 -12 11 -43 41 -71 66 -93 87 -199 233 -230 317 -10 26 -26 55 -36 65 -10
10 -18 25 -18 33 0 8 -8 29 -17 47 -17 30 -18 125 -25 1407 -10 1713 -21 2671
-31 2688 -5 6 -14 12 -20 12 -12 0 -117 -148 -117 -164 0 -4 -10 -22 -22 -39
-33 -46 -66 -108 -168 -317 -101 -204 -108 -219 -145 -305 -14 -33 -32 -71
-39 -85 -7 -14 -16 -38 -20 -55 -4 -16 -16 -50 -28 -75 -42 -87 -69 -162 -89
-245 -5 -22 -16 -53 -24 -70 -9 -16 -19 -55 -24 -85 -11 -61 -26 -123 -48
-190 -8 -25 -19 -72 -24 -105 -5 -33 -16 -91 -24 -130 -9 -38 -22 -104 -31
-145 -9 -41 -22 -133 -29 -205 -7 -71 -19 -168 -26 -215 -19 -132 -17 -922 4
-1060 9 -58 18 -148 22 -200 3 -52 12 -117 20 -145 7 -27 17 -72 21 -100 3
-27 12 -64 19 -80 7 -17 15 -57 19 -90 5 -33 14 -67 20 -75 7 -8 18 -33 24
-55 29 -108 114 -301 166 -377 13 -20 27 -46 31 -59 9 -26 45 -82 58 -87 4 -2
14 -17 23 -34 16 -31 21 -38 120 -149 91 -103 272 -259 300 -259 8 0 14 -4 14
-9 0 -19 187 -118 310 -165 41 -15 87 -34 101 -42 14 -7 53 -17 87 -23 34 -5
67 -13 72 -16 28 -17 256 -45 370 -45 134 0 323 22 380 45 19 7 60 16 89 20
30 3 66 12 80 20 15 7 60 25 101 40 41 15 82 31 90 36 8 5 26 14 40 19 48 20
125 63 168 94 153 110 333 281 412 389 19 26 51 69 71 95 20 26 51 75 68 109
18 34 35 65 40 67 4 3 20 38 36 78 16 40 35 80 42 89 16 19 41 108 59 209 7
41 18 100 23 130 27 140 50 2068 51 4105 0 688 3 1706 7 2263 l6 1014 26 10
c14 5 53 16 86 24 33 8 89 23 125 33 62 18 119 29 275 52 38 6 81 17 96 25 15
7 76 18 135 25 60 6 132 14 159 19 28 4 113 8 189 9 l139 1 -7 -3057z m1384
3042 c52 -8 118 -15 145 -15 28 0 70 -9 94 -20 24 -11 69 -23 100 -26 31 -3
78 -12 105 -20 27 -8 63 -14 80 -14 17 -1 49 -8 71 -16 22 -9 65 -22 95 -29
30 -8 71 -18 90 -24 19 -6 48 -11 65 -11 16 -1 48 -8 70 -16 64 -24 166 -55
215 -64 25 -5 63 -18 85 -29 21 -12 48 -21 60 -21 11 -1 31 -7 45 -15 14 -8
34 -15 45 -15 11 0 43 -12 70 -25 28 -14 55 -25 62 -25 13 0 56 -17 138 -56
107 -50 142 -64 157 -64 9 0 18 -6 21 -13 3 -7 38 -26 78 -42 41 -16 81 -34
89 -41 8 -6 44 -26 80 -44 36 -17 86 -44 111 -59 25 -16 62 -34 81 -40 20 -7
38 -15 40 -19 5 -12 62 -49 88 -57 13 -4 45 -22 70 -39 52 -35 81 -53 125 -76
17 -8 96 -59 176 -113 81 -53 149 -97 153 -97 11 0 247 -186 316 -249 36 -33
81 -72 101 -88 138 -110 811 -795 851 -867 6 -10 18 -26 27 -36 9 -10 24 -28
34 -41 10 -13 40 -53 68 -89 46 -58 105 -139 149 -205 8 -12 38 -55 65 -96 28
-41 53 -82 57 -91 4 -9 22 -38 40 -65 37 -52 83 -129 136 -227 19 -34 39 -68
47 -76 7 -8 16 -26 20 -39 4 -13 20 -45 35 -70 29 -48 71 -128 89 -171 6 -14
15 -32 20 -40 6 -8 22 -44 37 -80 15 -36 33 -72 40 -80 7 -8 16 -28 20 -45 4
-16 15 -46 26 -65 10 -19 18 -40 18 -46 0 -6 6 -17 14 -23 7 -6 16 -26 20 -43
7 -34 53 -156 66 -173 4 -5 20 -50 35 -100 15 -49 34 -99 42 -111 7 -11 17
-40 22 -65 17 -85 43 -174 57 -196 7 -12 18 -45 22 -75 11 -65 28 -134 53
-213 10 -33 23 -94 29 -135 6 -41 15 -91 19 -110 5 -19 12 -69 16 -110 4 -41
12 -88 19 -105 8 -17 16 -67 20 -110 4 -44 13 -125 21 -180 8 -55 17 -146 20
-202 3 -56 12 -133 20 -170 21 -100 21 -823 0 -886 -8 -23 -19 -109 -24 -190
-6 -81 -12 -151 -15 -155 -2 -4 -9 -55 -15 -112 -7 -58 -18 -123 -26 -145 -7
-22 -19 -82 -25 -134 -6 -52 -13 -97 -15 -101 -2 -4 -9 -38 -15 -76 -6 -38
-17 -85 -24 -104 -18 -45 -46 -158 -57 -234 -5 -33 -15 -67 -23 -75 -13 -16
-41 -117 -57 -205 -4 -27 -15 -56 -23 -65 -8 -9 -19 -34 -25 -56 -19 -78 -41
-137 -95 -257 -9 -20 -16 -43 -16 -52 0 -9 -18 -54 -39 -100 -22 -46 -43 -96
-47 -112 -4 -16 -12 -36 -19 -44 -7 -8 -25 -42 -40 -75 -63 -138 -184 -374
-203 -398 -5 -6 -23 -37 -39 -67 -33 -64 -72 -128 -128 -214 -22 -33 -53 -83
-69 -110 -15 -26 -37 -57 -47 -67 -10 -10 -19 -25 -19 -32 0 -8 -12 -24 -26
-38 -14 -13 -45 -53 -69 -89 -244 -372 -836 -988 -1243 -1295 -15 -11 -50 -38
-79 -60 -28 -22 -75 -56 -103 -75 -28 -19 -64 -45 -78 -56 -41 -33 -254 -174
-262 -174 -4 0 -15 -9 -25 -20 -10 -11 -23 -20 -29 -20 -6 0 -36 -17 -66 -38
-30 -20 -67 -43 -82 -49 -15 -7 -46 -24 -70 -39 -24 -15 -68 -41 -98 -57 -30
-16 -66 -38 -79 -48 -13 -11 -31 -19 -40 -19 -9 0 -40 -16 -70 -35 -29 -19
-65 -38 -79 -41 -15 -4 -34 -12 -42 -19 -24 -18 -210 -105 -227 -105 -6 0 -16
-6 -22 -14 -7 -8 -27 -18 -44 -22 -18 -3 -69 -24 -114 -45 -46 -22 -87 -39
-92 -39 -9 0 -86 -31 -136 -55 -16 -8 -48 -19 -70 -24 -57 -14 -136 -41 -160
-54 -23 -12 -127 -43 -194 -58 -25 -5 -55 -16 -67 -24 -12 -8 -48 -19 -81 -24
-125 -22 -219 -44 -240 -57 -12 -7 -63 -18 -114 -24 -50 -6 -95 -13 -99 -15
-4 -3 -54 -11 -112 -19 -57 -8 -117 -20 -133 -26 -17 -6 -123 -16 -237 -23
-169 -9 -209 -8 -222 2 -14 12 -16 141 -16 1341 0 1250 1 1329 18 1349 l17 21
600 -2 600 -3 5 -605 c3 -333 9 -611 13 -617 12 -18 47 -16 87 5 19 11 49 22
65 26 17 4 50 16 75 28 25 12 59 27 75 34 17 7 56 24 87 38 31 15 59 26 62 26
9 0 185 87 199 98 6 5 23 13 37 17 14 4 48 22 76 40 28 18 61 36 74 40 13 4
48 25 79 46 31 22 59 39 63 39 4 0 33 17 65 39 32 21 79 51 104 67 73 46 163
107 175 118 6 6 37 29 69 51 32 22 82 60 111 85 29 25 74 61 99 80 25 19 54
42 63 50 183 156 379 341 495 467 82 89 128 141 232 263 28 32 112 141 177
229 15 20 40 56 55 81 15 25 41 64 58 86 29 40 78 118 120 189 108 185 158
275 199 360 26 55 66 136 87 180 21 44 39 87 39 96 0 9 7 22 15 29 8 7 15 18
15 24 0 6 9 27 19 47 11 20 23 54 26 75 4 22 12 48 19 59 21 37 71 174 101
278 7 26 18 54 24 60 5 7 13 37 17 67 4 30 11 63 16 72 4 10 13 41 18 70 6 29
17 67 25 83 7 17 18 68 24 113 6 45 15 90 20 100 5 9 12 42 16 72 4 30 13 75
21 100 38 122 55 916 30 1335 -9 149 -23 295 -30 325 -8 30 -17 79 -21 109 -4
30 -13 68 -20 85 -7 17 -15 62 -19 100 -4 38 -13 81 -21 96 -8 15 -17 47 -21
71 -3 24 -12 62 -19 84 -8 22 -17 63 -20 90 -4 28 -12 59 -17 70 -6 10 -17 40
-24 65 -28 98 -89 266 -104 285 -4 6 -11 28 -15 50 -4 22 -13 51 -20 65 -33
61 -55 112 -55 123 0 7 -6 23 -13 37 -20 37 -67 130 -137 270 -34 69 -67 132
-74 140 -7 8 -18 26 -24 40 -7 14 -23 43 -37 65 -14 22 -31 51 -38 65 -20 40
-170 267 -249 374 -145 199 -325 413 -460 550 -26 27 -48 52 -48 56 0 7 -116
116 -305 289 -79 72 -265 221 -355 285 -107 76 -228 156 -234 156 -4 0 -26 15
-49 34 -23 19 -54 37 -70 41 -15 4 -27 11 -27 17 0 5 -15 16 -32 24 -18 8 -40
19 -48 24 -8 6 -26 15 -40 21 -14 6 -60 29 -102 52 -141 77 -340 172 -380 182
-15 4 -32 13 -39 21 -6 8 -17 14 -23 14 -6 0 -33 12 -61 25 -27 14 -55 25 -62
25 -6 0 -24 7 -40 14 -53 28 -126 45 -145 35 -40 -21 -41 -34 -46 -651 -5
-564 -6 -599 -24 -629 l-19 -31 -587 7 c-336 5 -590 12 -593 17 -8 12 -22
2755 -14 2768 10 15 316 12 425 -5z m595 -3305 c457 -8 645 -23 725 -55 19 -7
46 -17 60 -20 69 -17 168 -48 192 -61 14 -8 32 -14 40 -14 7 0 29 -8 48 -19
19 -10 51 -22 70 -26 19 -4 42 -13 50 -20 8 -7 26 -16 40 -20 14 -4 32 -13 40
-20 8 -7 29 -16 45 -19 17 -4 55 -23 86 -42 31 -19 60 -34 64 -34 4 0 31 -15
59 -34 28 -18 78 -48 111 -65 33 -18 80 -47 105 -66 25 -19 63 -46 85 -62 125
-88 292 -231 388 -333 29 -30 72 -76 97 -102 25 -26 50 -53 55 -60 127 -161
175 -225 175 -236 0 -5 7 -15 15 -22 8 -6 30 -40 50 -73 19 -34 40 -69 45 -77
5 -8 23 -44 40 -80 17 -36 40 -81 50 -100 11 -19 27 -55 36 -80 10 -25 23 -52
30 -60 6 -8 17 -31 23 -50 20 -70 51 -153 60 -164 8 -10 23 -60 54 -181 8 -27
18 -59 24 -70 6 -11 14 -42 18 -70 4 -27 12 -58 16 -67 5 -9 16 -77 24 -150 8
-73 19 -151 24 -173 6 -22 15 -152 22 -290 14 -284 1 -673 -25 -759 -8 -26
-17 -78 -21 -114 -6 -63 -12 -88 -50 -207 -16 -49 -28 -90 -61 -210 -9 -33
-22 -67 -29 -75 -6 -8 -24 -54 -39 -102 -15 -48 -34 -92 -41 -98 -8 -6 -17
-23 -20 -38 -4 -15 -19 -50 -33 -78 -15 -28 -43 -82 -62 -120 -19 -38 -50 -91
-68 -117 -17 -26 -32 -52 -32 -58 0 -5 -8 -17 -17 -27 -10 -9 -27 -31 -37 -47
-10 -17 -44 -63 -75 -103 -31 -41 -63 -84 -71 -96 -42 -62 -306 -328 -395
-398 -33 -26 -69 -55 -79 -65 -42 -39 -206 -152 -358 -247 -76 -48 -247 -136
-264 -136 -6 0 -17 -6 -23 -14 -7 -8 -25 -18 -41 -21 -16 -3 -34 -12 -40 -20
-6 -7 -27 -16 -47 -20 -20 -3 -52 -15 -72 -26 -20 -10 -43 -19 -52 -19 -9 0
-22 -6 -28 -14 -6 -8 -33 -17 -59 -20 -26 -4 -63 -13 -82 -20 -69 -28 -177
-56 -290 -76 -130 -23 -384 -34 -1095 -50 -506 -12 -1792 -9 -1817 3 -38 19
-31 37 65 151 17 21 36 45 41 54 11 19 87 113 117 145 11 12 37 47 57 77 20
30 47 66 60 80 13 13 48 61 78 105 112 163 185 269 214 305 17 21 30 42 30 48
0 6 17 32 38 59 21 26 53 71 71 100 23 35 42 54 60 57 14 3 125 10 246 17 121
6 228 15 238 20 16 9 17 103 17 1752 0 1342 3 1746 12 1755 9 9 160 12 620 12
l608 0 1 -882 c1 -486 5 -1277 8 -1758 l6 -875 28 -3 c16 -2 38 3 50 11 12 8
40 17 62 21 52 9 158 45 204 68 19 10 45 18 57 18 12 0 27 7 34 15 7 8 18 15
25 15 11 0 162 75 243 120 40 23 86 53 97 65 6 6 36 28 68 49 92 62 377 350
377 381 0 4 15 26 34 49 19 23 40 53 46 66 6 14 21 43 34 65 72 119 141 281
161 375 4 19 14 44 21 55 7 11 18 54 24 94 6 40 13 77 16 82 14 23 39 307 38
429 -1 201 -49 580 -78 625 -7 11 -17 36 -21 55 -14 71 -48 175 -61 191 -8 8
-14 20 -14 25 0 14 -116 237 -155 299 -48 75 -201 257 -276 329 -80 76 -221
186 -304 237 -68 41 -80 48 -95 55 -8 3 -51 23 -95 44 -45 21 -97 41 -115 45
-19 4 -40 12 -47 17 -19 15 -150 47 -233 58 -261 31 -335 34 -1075 39 l-770 6
-3 590 c-1 325 0 596 3 604 6 15 286 13 1490 -9z m-6661 -6973 c6 -8 44 -30
84 -48 39 -18 72 -36 72 -39 0 -4 33 -20 73 -35 39 -16 79 -34 87 -41 24 -19
102 -50 145 -58 22 -4 51 -14 65 -21 43 -23 122 -46 190 -56 36 -5 77 -16 92
-24 15 -9 64 -20 109 -26 46 -5 87 -13 91 -15 5 -3 91 -12 191 -20 100 -8 232
-19 292 -24 61 -5 217 -12 347 -16 l238 -7 45 -31 c25 -17 89 -61 143 -98 54
-38 103 -68 109 -68 5 0 18 -9 28 -20 10 -11 22 -20 27 -20 4 0 31 -16 58 -35
27 -19 54 -35 59 -35 4 0 19 -8 32 -18 13 -11 39 -24 57 -30 18 -6 53 -25 78
-42 25 -16 50 -30 56 -30 6 0 42 -18 80 -40 39 -22 72 -40 75 -40 4 0 29 -11
57 -24 28 -13 82 -36 120 -51 38 -15 77 -30 85 -34 9 -5 36 -18 61 -29 25 -12
61 -25 80 -28 19 -4 40 -10 45 -14 18 -13 139 -58 175 -65 19 -3 51 -12 70
-20 64 -25 134 -46 195 -60 85 -20 143 -35 195 -52 25 -8 74 -19 110 -24 36
-6 97 -16 135 -24 39 -7 96 -16 128 -19 32 -4 84 -13 115 -21 31 -8 86 -18
122 -22 l65 -8 2 -585 c2 -346 -1 -591 -6 -600 -8 -12 -36 -12 -203 -2 -106 6
-216 18 -243 26 -28 8 -79 17 -115 21 -36 4 -90 13 -120 20 -30 7 -84 16 -119
19 -36 3 -75 13 -87 21 -12 8 -46 17 -75 21 -30 4 -65 11 -78 16 -13 4 -55 13
-93 18 -38 6 -79 17 -91 24 -12 8 -40 19 -62 24 -109 26 -173 44 -200 57 -41
19 -121 44 -173 55 -24 6 -55 16 -70 24 -37 19 -130 54 -167 62 -16 4 -37 12
-45 18 -8 7 -42 23 -75 35 -33 13 -85 35 -115 49 -30 13 -75 33 -100 44 -40
18 -68 32 -166 83 -16 8 -37 15 -46 15 -10 0 -18 5 -18 11 0 5 -30 24 -67 41
-38 17 -75 37 -83 43 -8 7 -40 26 -70 42 -30 16 -75 42 -100 58 -25 17 -56 35
-70 42 -14 7 -43 24 -65 38 -22 14 -54 32 -72 40 -17 8 -33 18 -35 23 -1 4
-50 39 -108 78 -136 90 -510 374 -582 443 -9 9 -23 21 -30 26 -7 6 -80 71
-163 147 -172 156 -303 287 -439 440 -52 59 -103 116 -113 126 -113 121 -314
373 -306 385 8 13 73 1 87 -16z"/>
</g>
</svg>
