<?xml version="1.0" encoding="UTF-8"?>
<svg version="1.1" xmlns="http://www.w3.org/2000/svg" width="1556" height="214">
<path d="M0 0 C1.09513916 0.04713135 2.19027832 0.0942627 3.31860352 0.14282227 C4.54256836 0.19116211 5.7665332 0.23950195 7.02758789 0.28930664 C8.32116211 0.34538086 9.61473633 0.40145508 10.94750977 0.45922852 C29.2872647 1.23902912 47.54636167 1.00056956 65.89416504 0.59365845 C171.8347078 -1.71318405 171.8347078 -1.71318405 204.82250977 26.27172852 C223.14748198 43.85754219 234.07490635 66.93049018 234.79541016 92.43408203 C235.11184715 119.00053578 226.5448316 146.13718136 208.51000977 166.02172852 C207.82551758 166.83512695 207.14102539 167.64852539 206.43579102 168.48657227 C183.68900236 194.99046066 151.58069276 206.76457223 117.63891602 209.54956055 C107.27587078 210.26790576 96.90477768 210.16582681 86.52172852 210.15454102 C84.3245289 210.15521574 82.12732936 210.15618717 79.93013 210.15744019 C75.35722127 210.15890519 70.78433221 210.15679866 66.21142578 210.15209961 C60.33785561 210.1463589 54.46433071 210.14971605 48.59076214 210.15567207 C44.06909336 210.15927274 39.54743547 210.15814216 35.02576637 210.15554428 C32.85791837 210.1548759 30.69006938 210.15570034 28.52222252 210.15802383 C25.51120722 210.16054694 22.50026744 210.15671667 19.48925781 210.15112305 C18.5891246 210.15314728 17.68899139 210.15517151 16.76158142 210.15725708 C10.62428151 210.13600026 10.62428151 210.13600026 9.51000977 209.02172852 C8.69750977 205.89672852 8.69750977 205.89672852 9.51000977 202.02172852 C12.49519503 200.01688516 15.51964374 198.48865656 18.78735352 196.99047852 C21.83025104 195.25841437 21.83025104 195.25841437 22.14567566 191.88972473 C23.83135252 173.99353661 23.67420448 156.03642081 23.67726684 138.07897782 C23.67798499 135.7073756 23.68013319 133.33577891 23.68276405 130.96417809 C23.69195415 122.66849789 23.69610573 114.37283356 23.6953125 106.07714844 C23.69470885 98.37372928 23.70533299 90.67037948 23.72105616 82.96697789 C23.73414433 76.31514148 23.73949608 69.66332779 23.73885709 63.0114786 C23.7386031 59.05437325 23.74140167 55.09733018 23.75203514 51.14023781 C23.76174134 47.42919444 23.76177816 43.71827279 23.75451851 40.00722504 C23.7529823 38.00745043 23.7612958 36.00767575 23.7699585 34.00791931 C23.74795165 27.69314224 23.61727823 22.01101299 21.51000977 16.02172852 C16.94276649 12.55595559 11.74158326 12.35021328 6.19750977 11.89672852 C-2.38078989 11.13092886 -2.38078989 11.13092886 -3.48999023 10.02172852 C-3.58789593 8.52434727 -3.61973888 7.02229959 -3.61499023 5.52172852 C-3.61756836 4.70704102 -3.62014648 3.89235352 -3.62280273 3.05297852 C-3.42419465 0.01544307 -3.06299382 0.02672874 0 0 Z M57.51000977 16.02172852 C55.79056319 21.18006825 56.11769623 26.63684911 55.95532227 32.04125977 C55.93438633 32.71401255 55.91345039 33.38676533 55.89188004 34.07990456 C55.32543265 52.66459091 55.35454671 71.2543604 55.38123703 89.84585953 C55.38505434 92.74305514 55.38708903 95.64024745 55.38870239 98.53744507 C55.4042154 122.13905395 55.49709888 145.73639692 55.94750977 169.33422852 C55.96706726 170.41199554 55.98662476 171.48976257 56.0067749 172.60018921 C56.0626065 175.54948019 56.1259859 178.498468 56.19360352 181.44750977 C56.21032608 182.28996246 56.22704865 183.13241516 56.24427795 184.00039673 C56.32930515 187.24302782 56.47781108 189.92513244 57.51000977 193.02172852 C91.31781279 198.9844061 134.16782479 199.44983198 163.51000977 179.02172852 C171.034606 173.52623689 177.13287876 167.63536534 182.51000977 160.02172852 C183.03079102 159.29985352 183.55157227 158.57797852 184.08813477 157.83422852 C198.93964726 135.32246221 202.16087009 104.15861318 197.32250977 78.14672852 C192.82712768 58.36704733 182.84083123 40.25993437 165.57250977 29.08422852 C148.16217044 18.40423161 127.60020758 13.88222147 107.29516602 13.85375977 C106.44055283 13.85043137 105.58593964 13.84710297 104.70542908 13.84367371 C102.90453625 13.83864251 101.10363422 13.83626419 99.30273438 13.83642578 C96.61059266 13.83425916 93.91887507 13.81611733 91.22680664 13.79711914 C79.8526193 13.76150509 68.78161898 14.50249291 57.51000977 16.02172852 Z " fill="#1F1F1F" transform="translate(981.489990234375,-0.021728515625)"/>
<path d="M0 0 C1.22525391 0.04833984 2.45050781 0.09667969 3.71289062 0.14648438 C5.64745117 0.2305957 5.64745117 0.2305957 7.62109375 0.31640625 C25.70854248 1.0830642 43.70241744 0.84191722 61.79510498 0.45083618 C168.46077444 -1.81343407 168.46077444 -1.81343407 202.05859375 27.87890625 C202.99445313 28.68908203 202.99445313 28.68908203 203.94921875 29.515625 C214.32904775 39.14364396 221.39991983 51.6501803 226.05859375 64.87890625 C226.28305176 65.51570313 226.50750977 66.1525 226.73876953 66.80859375 C235.4413345 92.98975621 229.92882276 120.99864291 218.46875 145.2421875 C205.8792577 169.97683708 185.082581 187.63633966 160.05859375 198.87890625 C158.99125 199.36230469 157.92390625 199.84570312 156.82421875 200.34375 C133.45730009 210.09973508 107.19484115 210.20105011 82.2890625 210.109375 C80.10329719 210.10817884 77.91753137 210.10773096 75.73176575 210.10798645 C71.20664133 210.10644037 66.68159816 210.0982859 62.15649414 210.0847168 C56.34592423 210.06751418 50.53544116 210.06390951 44.72484875 210.06466198 C40.23750474 210.0643912 35.75017985 210.05892845 31.26284218 210.05166054 C29.11732439 210.04847563 26.97180444 210.04650688 24.82628441 210.04576683 C21.85444738 210.04361348 18.88270545 210.03489763 15.91088867 210.02416992 C15.02332382 210.02462311 14.13575897 210.02507629 13.22129822 210.02554321 C7.17309007 209.99340257 7.17309007 209.99340257 6.05859375 208.87890625 C5.74609375 205.50390625 5.74609375 205.50390625 6.05859375 201.87890625 C7.68359375 200.12890625 7.68359375 200.12890625 10.05859375 198.87890625 C11.08984375 198.32203125 12.12109375 197.76515625 13.18359375 197.19140625 C16.05859375 195.87890625 16.05859375 195.87890625 18.05859375 195.87890625 C20.05196867 162.06226153 20.34095253 128.32004182 20.25421143 94.45153809 C20.24342477 89.7165393 20.24357453 84.98155496 20.24413985 80.24654633 C20.24475307 74.30058139 20.23952102 68.35463424 20.23134804 62.40867424 C20.22819566 59.92139748 20.22620212 57.43411893 20.22545433 54.94684029 C21.43683961 34.42874848 21.43683961 34.42874848 17.05859375 14.87890625 C12.27213477 12.53346783 6.98966845 12.29997569 1.74609375 11.81640625 C-6.81510867 11.00520383 -6.81510867 11.00520383 -7.94140625 9.87890625 C-8.01320589 8.35962587 -8.02532632 6.83723143 -8.00390625 5.31640625 C-7.99488281 4.49011719 -7.98585938 3.66382813 -7.9765625 2.8125 C-7.96496094 2.17441406 -7.95335937 1.53632813 -7.94140625 0.87890625 C-5.17857684 -0.50250846 -3.08544117 -0.13265107 0 0 Z M53.05859375 16.87890625 C51.80270636 25.74773191 51.91490993 34.74474367 51.92919922 43.6809082 C51.92784061 45.12630253 51.92605811 46.57169651 51.92388916 48.01708984 C51.91936824 51.90776696 51.92108253 55.79841726 51.92426825 59.68909478 C51.92682112 63.78599123 51.92444608 67.88288556 51.92288208 71.9797821 C51.92106826 78.85981656 51.92344534 85.73984024 51.92822266 92.61987305 C51.93365725 100.53713672 51.93190527 108.4543746 51.92639625 116.37163764 C51.92183484 123.20433149 51.9212295 130.03701765 51.92383492 136.86971253 C51.92538195 140.93499465 51.92563531 145.00026472 51.92229843 149.06554604 C51.91937567 152.89304159 51.92147491 156.72050444 51.92719269 160.54799652 C51.92849724 161.93979272 51.92816629 163.33159175 51.92593002 164.72338676 C51.91218855 174.15725911 52.32561325 183.47811457 53.05859375 192.87890625 C84.12976906 198.22419402 120.05529146 198.84650225 149.05859375 184.87890625 C150.42371094 184.25242188 150.42371094 184.25242188 151.81640625 183.61328125 C169.51693278 174.83866126 182.1307426 158.17595021 188.53515625 139.77734375 C197.87282799 111.4983927 198.02923295 80.73316981 184.47631836 53.72143555 C180.73141473 46.75177745 175.73958839 41.32034087 170.05859375 35.87890625 C169.42953125 35.2653125 168.80046875 34.65171875 168.15234375 34.01953125 C151.45183801 18.73699298 125.88884757 13.74150266 103.94140625 13.7109375 C103.08537811 13.7076091 102.22934998 13.7042807 101.34738159 13.70085144 C99.54051241 13.69581383 97.73363401 13.69344213 95.92675781 13.69360352 C93.22574544 13.69144001 90.52515784 13.67331409 87.82421875 13.65429688 C69.44287357 12.37847539 69.44287357 12.37847539 53.05859375 16.87890625 Z " fill="#1F1F1F" transform="translate(640.94140625,0.12109375)"/>
<path d="M0 0 C1.10150391 0.04713135 2.20300781 0.0942627 3.33789062 0.14282227 C4.56636719 0.19116211 5.79484375 0.23950195 7.06054688 0.28930664 C8.35863281 0.34538086 9.65671875 0.40145508 10.99414062 0.45922852 C29.09994461 1.22386362 47.11785536 0.98517415 65.23065186 0.59365845 C172.70522604 -1.68778302 172.70522604 -1.68778302 204.49414062 27.02172852 C205.34878906 27.78227539 206.2034375 28.54282227 207.08398438 29.32641602 C223.54773291 44.80081756 233.62609762 67.45261042 234.49414062 90.02172852 C234.53410156 90.85446289 234.5740625 91.68719727 234.61523438 92.54516602 C235.31827757 120.74960494 224.67370499 148.38737384 205.50976562 168.92016602 C204.84460938 169.61368164 204.17945313 170.30719727 203.49414062 171.02172852 C202.68976563 171.86735352 201.88539063 172.71297852 201.05664062 173.58422852 C200.21101562 174.38860352 199.36539063 175.19297852 198.49414062 176.02172852 C197.82382812 176.6752832 197.15351562 177.32883789 196.46289062 178.00219727 C166.16961719 206.57426198 126.2311102 210.19772015 86.50585938 210.15454102 C84.30865976 210.15521574 82.11146022 210.15618717 79.91426086 210.15744019 C75.34135213 210.15890519 70.76846307 210.15679866 66.19555664 210.15209961 C60.32198647 210.1463589 54.44846157 210.14971605 48.574893 210.15567207 C44.05322422 210.15927274 39.53156633 210.15814216 35.00989723 210.15554428 C32.84204923 210.1548759 30.67420024 210.15570034 28.50635338 210.15802383 C25.49533808 210.16054694 22.4843983 210.15671667 19.47338867 210.15112305 C18.57325546 210.15314728 17.67312225 210.15517151 16.74571228 210.15725708 C10.60841237 210.13600026 10.60841237 210.13600026 9.49414062 209.02172852 C9.45321125 206.68875418 9.45172339 204.35467627 9.49414062 202.02172852 C10.27660156 201.61180664 11.0590625 201.20188477 11.86523438 200.77954102 C12.87714844 200.24071289 13.8890625 199.70188477 14.93164062 199.14672852 C15.94097656 198.61305664 16.9503125 198.07938477 17.99023438 197.52954102 C20.59554504 196.26518737 20.59554504 196.26518737 21.49414062 194.02172852 C22.36388674 187.49535255 22.77886338 180.98934711 23.04614258 174.41357422 C23.08818219 173.38101407 23.13022181 172.34845392 23.17353535 171.28460407 C23.65868538 158.15754117 23.65893216 145.02623313 23.6613977 131.89202285 C23.66211957 129.72154926 23.66427427 127.5510816 23.66689491 125.38060951 C23.67605845 117.77522009 23.68023965 110.16984789 23.67944336 102.56445312 C23.67883903 95.52161398 23.6894831 88.47885052 23.70518702 81.43603057 C23.71829889 75.33436009 23.72362601 69.23271435 23.72298795 63.1310299 C23.72273484 59.50980793 23.7254842 55.88865418 23.736166 52.26744652 C23.74772721 48.24172156 23.7430779 44.21616678 23.73706055 40.19042969 C23.74548981 38.42681091 23.74548981 38.42681091 23.75408936 36.62756348 C23.72792353 29.71611013 23.58792775 22.66835143 21.49414062 16.02172852 C17.15096298 12.40574959 11.65302718 12.34426775 6.18164062 11.89672852 C-2.39665903 11.13092886 -2.39665903 11.13092886 -3.50585938 10.02172852 C-3.60376507 8.52434727 -3.63560802 7.02229959 -3.63085938 5.52172852 C-3.6334375 4.70704102 -3.63601563 3.89235352 -3.63867188 3.05297852 C-3.43946981 0.00635872 -3.07305142 0.02664669 0 0 Z M56.49414062 17.02172852 C56.24560904 19.93204187 56.06830025 22.81699108 55.93994141 25.73364258 C55.89783098 26.66464909 55.85572056 27.59565559 55.81233406 28.55487442 C55.31082505 40.89159875 55.34780729 53.23367461 55.35981512 65.57849407 C55.3624016 69.08742528 55.35998392 72.59635429 55.35842896 76.10528564 C55.35662422 81.99508136 55.3589675 87.88486442 55.36376953 93.7746582 C55.36919865 100.50982677 55.36745237 107.24496499 55.36194313 113.98013282 C55.35735082 119.83652746 55.35679115 125.69291315 55.35938179 131.54930902 C55.36091276 135.01450358 55.36122907 138.47968406 55.35784531 141.94487762 C55.34643704 158.99578366 55.65327884 175.99044619 56.49414062 193.02172852 C91.44881523 198.46646769 134.27969141 199.83256598 164.58398438 178.33813477 C180.85085603 165.39014162 189.86172696 149.35268945 195.24414062 129.33422852 C195.56064575 128.15836182 195.56064575 128.15836182 195.88354492 126.95874023 C202.07933752 102.76031841 199.54111642 75.07966101 187.86523438 52.93188477 C175.86323312 33.07706598 157.58045716 22.51068889 135.52539062 17.06469727 C123.25303275 14.3899526 111.42250786 13.70123723 98.90966797 13.76098633 C96.26180834 13.77165731 93.61463539 13.76105642 90.96679688 13.74829102 C72.72320764 12.54174887 72.72320764 12.54174887 56.49414062 17.02172852 Z " fill="#1F1F1F" transform="translate(378.505859375,-0.021728515625)"/>
<path d="M0 0 C1.48721421 0.04253751 2.97427644 0.09058751 4.46118164 0.14282227 C5.66019859 0.17823875 5.66019859 0.17823875 6.88343811 0.21437073 C9.46291198 0.29116061 12.04210614 0.37472274 14.62133789 0.45922852 C34.90934716 1.10481852 55.07499457 1.0382112 75.36181641 0.37353516 C77.87659569 0.29223079 80.39149929 0.21711003 82.90649414 0.14282227 C84.06085716 0.10226967 84.06085716 0.10226967 85.23854065 0.06089783 C87.05294467 0.00900198 88.86873082 0.00983537 90.68383789 0.02172852 C91.68383789 1.02172852 91.68383789 1.02172852 91.81665039 3.05297852 C91.81407227 3.86766602 91.81149414 4.68235352 91.80883789 5.52172852 C91.81270508 6.74375977 91.81270508 6.74375977 91.81665039 7.99047852 C91.68383789 10.02172852 91.68383789 10.02172852 90.68383789 11.02172852 C89.11119985 11.22494506 87.53080486 11.36890775 85.94946289 11.48657227 C84.98266602 11.56456055 84.01586914 11.64254883 83.01977539 11.72290039 C80.97831325 11.87924021 78.93664614 12.03292842 76.89477539 12.18383789 C75.4368457 12.30275391 75.4368457 12.30275391 73.94946289 12.42407227 C73.06033203 12.49102295 72.17120117 12.55797363 71.25512695 12.62695312 C68.37958311 13.06844139 66.23527746 13.60465399 63.68383789 15.02172852 C59.68750149 23.19516985 60.53441682 33.27484404 60.53857422 42.17431641 C60.53521561 43.22965576 60.53185699 44.28499512 60.52839661 45.37231445 C60.51896952 48.82968351 60.51694747 52.28700369 60.51586914 55.74438477 C60.51265016 58.17418944 60.50928562 60.60399393 60.50578308 63.03379822 C60.49981189 68.11823983 60.49794104 73.2026645 60.49853516 78.28710938 C60.49863651 84.75661473 60.48500329 91.22600966 60.46776295 97.69548893 C60.45656414 102.71368393 60.45461838 107.73185292 60.45514488 112.75005913 C60.45397588 115.13272926 60.44961587 117.5154003 60.44181252 119.89805794 C59.39104523 150.76812184 59.39104523 150.76812184 71.66430664 178.02563477 C85.77113095 191.96874351 109.25057917 193.37387792 127.92749023 193.32666016 C145.665568 193.02283634 166.0729372 189.98808184 179.97290039 178.05688477 C193.11861065 164.44344324 193.85343786 144.4473615 193.81323242 126.54003906 C193.81498474 125.5563031 193.81673706 124.57256714 193.81854248 123.559021 C193.82290435 120.34214455 193.82004241 117.12532417 193.81665039 113.90844727 C193.81732522 111.64842214 193.81829673 109.38839708 193.81954956 107.12837219 C193.82101901 102.40377101 193.81889684 97.67918881 193.81420898 92.95458984 C193.80852203 86.9331215 193.81178898 80.91169783 193.81778145 74.89023113 C193.82141583 70.22562837 193.82023515 65.56103598 193.81765366 60.89643288 C193.81699182 58.67792569 193.81778649 56.45941753 193.82013321 54.24091148 C194.14960567 34.51783422 194.14960567 34.51783422 191.68383789 15.02172852 C184.04826913 12.7223811 176.78453923 11.6229538 168.85375977 11.31298828 C163.77034197 11.10823259 163.77034197 11.10823259 162.68383789 10.02172852 C162.61203825 8.50244814 162.59991782 6.9800537 162.62133789 5.45922852 C162.63036133 4.63293945 162.63938477 3.80665039 162.64868164 2.95532227 C162.66608398 1.99819336 162.66608398 1.99819336 162.68383789 1.02172852 C165.7386888 0.00344488 167.46557658 -0.02602202 170.63696289 0.14282227 C171.63638916 0.19132324 172.63581543 0.23982422 173.66552734 0.28979492 C174.74406982 0.34570801 175.8226123 0.40162109 176.93383789 0.45922852 C195.60523109 1.30408794 214.13878343 1.1331314 232.81005859 0.28979492 C233.95176514 0.24129395 235.09347168 0.19279297 236.26977539 0.14282227 C237.80190674 0.07212524 237.80190674 0.07212524 239.36499023 0 C241.68383789 0.02172852 241.68383789 0.02172852 242.68383789 1.02172852 C242.78174359 2.51910976 242.81358653 4.02115744 242.80883789 5.52172852 C242.81141602 6.33641602 242.81399414 7.15110352 242.81665039 7.99047852 C242.68383789 10.02172852 242.68383789 10.02172852 241.68383789 11.02172852 C240.0263209 11.22524382 238.36137949 11.36903385 236.69555664 11.48657227 C235.67913086 11.56456055 234.66270508 11.64254883 233.61547852 11.72290039 C231.4646559 11.87958283 229.31361232 12.03326287 227.16235352 12.18383789 C226.14206055 12.26311523 225.12176758 12.34239258 224.07055664 12.42407227 C223.13429443 12.49102295 222.19803223 12.55797363 221.23339844 12.62695312 C218.55161735 13.04220162 216.89474073 13.44527178 214.68383789 15.02172852 C209.34600254 26.02382616 211.51226353 41.91684092 211.45404243 53.9046936 C211.43736576 57.22199556 211.41412047 60.53919599 211.3891449 63.85644531 C211.31911013 73.27916217 211.25862944 82.70192018 211.20703125 92.12475586 C211.17484933 97.91818438 211.13348661 103.7114926 211.08683586 109.50482178 C211.07105282 111.6859924 211.05862554 113.86719049 211.04992867 116.04840088 C210.82400408 171.91378483 210.82400408 171.91378483 191.68383789 191.02172852 C170.24632671 212.08387472 138.70569027 214.4069201 110.18383789 214.17407227 C87.6560333 213.78016123 61.8640019 209.81179627 44.68383789 194.02172852 C44.06250977 193.50223633 43.44118164 192.98274414 42.80102539 192.44750977 C31.38224649 182.23981348 28.89111583 166.79687542 28.0004034 152.23414421 C27.44949195 142.03284559 27.49608647 131.81053381 27.45404243 121.59738541 C27.4374197 117.70354066 27.41418221 113.80978436 27.3891449 109.91598511 C27.31862357 98.85720566 27.25807809 87.79838821 27.20703125 76.73950195 C27.17559116 69.94531381 27.13390385 63.15124067 27.08683586 56.3571434 C27.07088087 53.7808822 27.05852952 51.20459596 27.04992867 48.62829971 C27.03772134 45.02772133 27.01355422 41.42740003 26.98681641 37.8269043 C26.98622726 36.77525589 26.98563812 35.72360748 26.98503113 34.64009094 C26.92359507 28.36957014 26.69825268 22.0169439 24.68383789 16.02172852 C19.95371904 12.00227373 13.34750195 12.29178278 7.37133789 11.89672852 C5.37496848 11.75204567 3.37885241 11.60380765 1.38305664 11.45141602 C0.50480225 11.39195801 -0.37345215 11.3325 -1.27832031 11.27124023 C-3.31616211 11.02172852 -3.31616211 11.02172852 -4.31616211 10.02172852 C-4.41406781 8.52434727 -4.44591075 7.02229959 -4.44116211 5.52172852 C-4.44374023 4.70704102 -4.44631836 3.89235352 -4.44897461 3.05297852 C-4.2226662 -0.40820898 -3.57405109 0.02341828 0 0 Z " fill="#1F1F1F" transform="translate(4.316162109375,-0.021728515625)"/>
<path d="M0 0 C10.65235787 8.98544643 16.4945877 21.08832917 18.18359375 34.8984375 C18.29453137 38.19160829 18.27834439 41.47891101 18.24609375 44.7734375 C18.24158203 45.65257812 18.23707031 46.53171875 18.23242188 47.4375 C18.22071712 49.59117553 18.20278444 51.74481567 18.18359375 53.8984375 C-1.54764143 64.56916309 -35.62968638 59.03691528 -57.60009766 58.96710205 C-61.24836627 58.95666011 -64.89664246 58.95226093 -68.54492188 58.94726562 C-75.63543432 58.9367105 -82.7259173 58.91976686 -89.81640625 58.8984375 C-89.37186514 61.91659796 -88.91883004 64.93307936 -88.4609375 67.94921875 C-88.27537292 69.21820007 -88.27537292 69.21820007 -88.08605957 70.51281738 C-85.91268537 84.68595528 -80.40920844 95.65629902 -69.41796875 105.01171875 C-56.20269806 114.59576641 -39.37943786 117.63126945 -23.41796875 115.4296875 C-14.38131697 113.72389256 -6.20664734 110.54181883 2.18359375 106.8984375 C3.15554688 106.47691406 4.1275 106.05539063 5.12890625 105.62109375 C7.1540736 104.72913133 9.17026066 103.81679996 11.18359375 102.8984375 C11.84359375 103.5584375 12.50359375 104.2184375 13.18359375 104.8984375 C12.95232362 109.87074534 11.14485654 113.95065375 8.18359375 117.8984375 C5.87468329 119.57500816 3.94961175 120.79306447 1.43359375 122.0234375 C0.77963623 122.35617676 0.12567871 122.68891602 -0.5480957 123.03173828 C-7.71027433 126.54513134 -15.10764135 128.91089582 -22.81640625 130.8984375 C-23.76257812 131.14464844 -24.70875 131.39085937 -25.68359375 131.64453125 C-47.529888 136.23541917 -73.24171931 133.19413841 -92.50390625 121.7734375 C-108.02374191 111.1606087 -116.92431709 97.2154447 -120.81640625 78.8984375 C-124.4911861 57.73762466 -121.27846321 34.91656035 -109.75390625 16.5859375 C-99.48074481 3.06744183 -80.87553033 -6.55273393 -64.81640625 -11.1015625 C-63.65818359 -11.43607422 -63.65818359 -11.43607422 -62.4765625 -11.77734375 C-41.06484738 -16.74973257 -17.67695601 -13.1902945 0 0 Z M-78.81640625 8.8984375 C-87.53082107 19.79993308 -90.05684481 32.19343936 -89.81640625 45.8984375 C-85.23168113 46.61297314 -80.75379566 47.06386281 -76.1171875 47.21484375 C-74.1993042 47.27792725 -74.1993042 47.27792725 -72.24267578 47.34228516 C-70.87143414 47.38234816 -69.5001771 47.42188703 -68.12890625 47.4609375 C-67.4305365 47.48178406 -66.73216675 47.50263062 -66.01263428 47.52410889 C-55.82248736 47.82466301 -45.63630713 48.00071023 -35.44140625 48.0234375 C-33.75204956 48.03032593 -33.75204956 48.03032593 -32.02856445 48.03735352 C-25.56414582 48.02515926 -19.23348764 47.68731981 -12.81640625 46.8984375 C-10.90166729 36.15385916 -12.6073923 23.59340113 -17.81640625 13.8984375 C-23.65236575 5.58010667 -30.82309282 0.09367476 -40.81640625 -2.1015625 C-55.40062795 -2.9832647 -67.99910702 -2.10255171 -78.81640625 8.8984375 Z " fill="#1F1F1F" transform="translate(1361.81640625,80.1015625)"/>
<path d="M0 0 C1.44490094 0.04253941 2.8896455 0.09058967 4.33422852 0.14282227 C5.11137711 0.16643326 5.8885257 0.19004425 6.68922424 0.21437073 C9.19737355 0.29115607 11.70523508 0.3747088 14.21313477 0.45922852 C34.30853231 1.1176675 54.28359063 1.03518607 74.37817383 0.37353516 C76.88554391 0.29208104 79.39304112 0.21702276 81.90063477 0.14282227 C82.66504883 0.1157872 83.42946289 0.08875214 84.21704102 0.06089783 C89.5489335 -0.09162212 89.5489335 -0.09162212 91.77563477 1.02172852 C91.80252693 2.50079743 91.82198098 3.98000334 91.83813477 5.45922852 C91.84973633 6.28293945 91.86133789 7.10665039 91.87329102 7.95532227 C91.77563477 10.02172852 91.77563477 10.02172852 90.77563477 11.02172852 C89.12948642 11.21316725 87.47635041 11.34528259 85.82250977 11.45141602 C84.30463867 11.56163086 84.30463867 11.56163086 82.75610352 11.67407227 C80.61853422 11.82140171 78.48049871 11.96212967 76.34204102 12.09594727 C75.3249707 12.17200195 74.30790039 12.24805664 73.26000977 12.32641602 C72.32898438 12.38812988 71.39795898 12.44984375 70.4387207 12.51342773 C67.17813734 13.1357723 65.34135639 13.89241012 62.77563477 16.02172852 C60.81110613 20.90248248 60.44673266 25.67150881 60.36157227 30.87719727 C60.33238708 32.04893997 60.33238708 32.04893997 60.3026123 33.24435425 C60.24098858 35.89920295 60.19496241 38.5540375 60.15063477 41.20922852 C60.13228577 42.14934784 60.11393677 43.08946716 60.09503174 44.05807495 C59.30115061 85.1945887 59.31391819 126.41839371 60.0401001 167.55612183 C60.07168718 169.38297499 60.0989521 171.20990892 60.121521 173.03689575 C60.15415873 175.4868345 60.20568178 177.93556371 60.26391602 180.38500977 C60.27031601 181.06984436 60.276716 181.75467896 60.28330994 182.46026611 C60.43517447 187.35873785 61.45556399 190.77095795 63.77563477 195.02172852 C66.68170363 197.22015945 69.58467148 197.36355018 73.16235352 197.61938477 C74.18264648 197.69866211 75.20293945 197.77793945 76.25415039 197.85961914 C77.31311523 197.93374023 78.37208008 198.00786133 79.46313477 198.08422852 C81.57150009 198.23781804 83.67959654 198.39516086 85.78735352 198.55688477 C86.72023193 198.62270752 87.65311035 198.68853027 88.61425781 198.75634766 C90.77563477 199.02172852 90.77563477 199.02172852 91.77563477 200.02172852 C91.84743441 201.54100889 91.85955484 203.06340333 91.83813477 204.58422852 C91.82911133 205.41051758 91.82008789 206.23680664 91.81079102 207.08813477 C91.79918945 207.7262207 91.78758789 208.36430664 91.77563477 209.02172852 C88.44021631 210.68943774 84.69446877 210.15974597 81.02734375 210.15112305 C79.66869202 210.15375153 79.66869202 210.15375153 78.28259277 210.15643311 C75.27895205 210.16084609 72.27536987 210.1579158 69.27172852 210.15454102 C67.1918995 210.15521415 65.11207056 210.15618426 63.03224182 210.15744019 C58.6700872 210.15891636 54.30795303 210.15676495 49.94580078 210.15209961 C44.34092553 210.14639884 38.73609813 210.14968404 33.13122463 210.15567207 C28.83599992 210.15927683 24.54078665 210.15813956 20.2455616 210.15554428 C18.17819272 210.15487496 16.11082281 210.15570362 14.04345512 210.15802383 C11.16045229 210.16054934 8.27752818 210.15671137 5.39453125 210.15112305 C4.10020927 210.15415939 4.10020927 210.15415939 2.77973938 210.15725708 C-3.1101021 210.13599165 -3.1101021 210.13599165 -4.22436523 209.02172852 C-4.32227093 207.52434727 -4.35411388 206.02229959 -4.34936523 204.52172852 C-4.35194336 203.70704102 -4.35452148 202.89235352 -4.35717773 202.05297852 C-4.22436523 200.02172852 -4.22436523 200.02172852 -3.22436523 199.02172852 C-1.65213847 198.80641643 -0.07163434 198.65079528 1.51000977 198.52172852 C2.47680664 198.43922852 3.44360352 198.35672852 4.43969727 198.27172852 C5.45805664 198.18922852 6.47641602 198.10672852 7.52563477 198.02172852 C9.52063812 197.85761513 11.5154399 197.69102888 13.51000977 197.52172852 C14.39914062 197.44954102 15.28827148 197.37735352 16.2043457 197.30297852 C18.77249899 197.02207151 21.25153023 196.56674434 23.77563477 196.02172852 C25.36137419 191.05464702 26.16622249 186.4274202 26.39233398 181.20751953 C26.42993269 180.43805528 26.46753139 179.66859102 26.50626945 178.87580967 C26.9959747 167.60753332 26.91937035 156.32537109 26.90844727 145.04907227 C26.90912346 142.55310558 26.91009608 140.05713895 26.91134644 137.56117249 C26.91281269 132.34611378 26.9107063 127.13107231 26.90600586 121.91601562 C26.90035313 115.33392133 26.90366177 108.75186785 26.9094429 102.16977501 C26.96746386 68.718687 26.96746386 68.718687 26.33032227 35.27563477 C26.2915799 33.98632553 26.25283752 32.6970163 26.21292114 31.36863708 C26.01632595 25.85001118 25.72369821 20.46488608 24.77563477 15.02172852 C18.67949666 12.98683249 12.72604785 12.40377171 6.33813477 11.89672852 C5.32041992 11.81036133 4.30270508 11.72399414 3.25415039 11.63500977 C0.76176035 11.42438525 -1.73097733 11.22012781 -4.22436523 11.02172852 C-4.25124674 9.37598286 -4.27070647 7.73011438 -4.28686523 6.08422852 C-4.2984668 5.16770508 -4.31006836 4.25118164 -4.32202148 3.30688477 C-4.16741559 -0.31089327 -3.71462657 0.02503231 0 0 Z " fill="#1F1F1F" transform="translate(268.224365234375,-0.021728515625)"/>
<path d="M0 0 C15.24181895 15.62413882 27.85534713 33.94010954 39.7109375 52.20703125 C47.39714773 44.13181562 54.55755766 35.83771587 61.33886719 26.99072266 C63.66906483 23.96146573 66.03488105 20.96028272 68.3984375 17.95703125 C68.85275146 17.37872559 69.30706543 16.80041992 69.77514648 16.20458984 C81.02066591 1.89730284 81.02066591 1.89730284 82.7109375 0.20703125 C84.55252773 0.10743504 86.39790717 0.07622714 88.2421875 0.07421875 C89.36238281 0.07292969 90.48257812 0.07164063 91.63671875 0.0703125 C92.81621094 0.07417969 93.99570313 0.07804687 95.2109375 0.08203125 C96.98017578 0.07623047 96.98017578 0.07623047 98.78515625 0.0703125 C100.46544922 0.07224609 100.46544922 0.07224609 102.1796875 0.07421875 C103.21544922 0.07534668 104.25121094 0.07647461 105.31835938 0.07763672 C107.7109375 0.20703125 107.7109375 0.20703125 108.7109375 1.20703125 C108.75186687 3.54000558 108.75335473 5.8740835 108.7109375 8.20703125 C108.1540625 8.35398437 107.5971875 8.5009375 107.0234375 8.65234375 C100.8714701 10.46052336 96.56337238 13.06470879 91.7109375 17.20703125 C90.95167969 17.84511719 90.19242188 18.48320313 89.41015625 19.140625 C82.84945489 24.843308 77.02339149 31.11503147 71.20898438 37.55615234 C69.75774418 39.15544931 68.29243599 40.74023998 66.8203125 42.3203125 C60.84301761 48.74745571 55.18218454 55.34433126 49.7109375 62.20703125 C51.27770216 66.980198 53.946932 70.51746501 56.9609375 74.45703125 C57.48743896 75.15231934 58.01394043 75.84760742 58.55639648 76.56396484 C63.08032243 82.488485 67.79106891 88.25082618 72.56079102 93.97827148 C76.26363956 98.42690718 79.86171597 102.93820304 83.3984375 107.51953125 C93.17548799 121.37347344 93.17548799 121.37347344 106.9140625 129.68359375 C107.92726563 129.75707031 107.92726563 129.75707031 108.9609375 129.83203125 C112.7109375 130.20703125 112.7109375 130.20703125 113.7109375 131.20703125 C113.85208911 133.87761976 113.75340857 136.53135363 113.7109375 139.20703125 C107.74695417 141.19502569 100.99840076 140.71647352 94.74365234 140.83178711 C92.98200115 140.87337671 91.22069731 140.93467955 89.46044922 141.01635742 C74.92457831 141.67906633 74.92457831 141.67906633 69.71289062 138.21337891 C67.39634691 135.67034385 65.55132747 133.10886154 63.7109375 130.20703125 C62.63526371 128.84262067 61.54765247 127.48748952 60.4453125 126.14453125 C59.44545349 124.83588742 58.45072779 123.52330702 57.4609375 122.20703125 C56.91937012 121.49353516 56.37780273 120.78003906 55.81982422 120.04492188 C51.18167069 113.90347744 46.67230357 107.67043858 42.19360352 101.41210938 C38.85035942 96.74716565 35.42417261 92.17911477 31.78515625 87.73828125 C30.7109375 86.20703125 30.7109375 86.20703125 30.7109375 84.20703125 C30.0509375 84.20703125 29.3909375 84.20703125 28.7109375 84.20703125 C28.46988281 84.77035156 28.22882813 85.33367187 27.98046875 85.9140625 C26.45124515 88.67607559 24.58524078 90.61467251 22.3984375 92.89453125 C15.60957001 100.24018356 9.69864122 108.20577907 3.7109375 116.20703125 C2.6162091 117.66300385 1.52116123 119.11873629 0.42578125 120.57421875 C-1.56456325 123.2214556 -3.55194697 125.87085121 -5.53515625 128.5234375 C-5.99688232 129.11729248 -6.4586084 129.71114746 -6.93432617 130.32299805 C-8.35267498 132.20550491 -8.35267498 132.20550491 -9.46606445 134.42895508 C-10.8902558 136.89288512 -12.02082763 138.47099577 -14.2890625 140.20703125 C-19.09223144 141.21560162 -23.71929257 141.00787055 -28.6015625 140.76953125 C-30.5515918 140.72795898 -30.5515918 140.72795898 -32.54101562 140.68554688 C-42.06443844 140.43165531 -42.06443844 140.43165531 -43.2890625 139.20703125 C-43.421875 137.39453125 -43.421875 137.39453125 -43.4140625 135.20703125 C-43.41792969 134.12421875 -43.41792969 134.12421875 -43.421875 133.01953125 C-43.2890625 131.20703125 -43.2890625 131.20703125 -42.2890625 130.20703125 C-40.79182467 129.96046232 -39.29107723 129.73509818 -37.7890625 129.51953125 C-24.01758323 126.75354814 -13.75883924 113.50026741 -5.02734375 103.23046875 C-2.83205119 100.67504954 -0.56146615 98.19406973 1.7109375 95.70703125 C5.76937639 91.25564215 9.76211578 86.7555572 13.7109375 82.20703125 C15.0228889 80.7065514 16.33537983 79.20654311 17.6484375 77.70703125 C18.23496094 77.03671875 18.82148437 76.36640625 19.42578125 75.67578125 C19.84988281 75.19109375 20.27398438 74.70640625 20.7109375 74.20703125 C18.59411687 69.75277229 15.7850967 65.93938434 12.8984375 61.95703125 C12.3216626 61.16071289 11.7448877 60.36439453 11.15063477 59.54394531 C5.77982445 52.19433869 0.13811445 45.0989697 -5.69824219 38.11523438 C-7.28450947 36.21249265 -8.85347529 34.29638553 -10.421875 32.37890625 C-22.07382238 18.16794397 -22.07382238 18.16794397 -39.015625 12.36328125 C-39.76585937 12.31171875 -40.51609375 12.26015625 -41.2890625 12.20703125 C-41.9490625 9.56703125 -42.6090625 6.92703125 -43.2890625 4.20703125 C-39.69141395 2.07679238 -36.17632845 1.5369431 -32.07421875 0.8828125 C-31.38146347 0.7722905 -30.68870819 0.66176849 -29.97496033 0.54789734 C-28.51386482 0.31689284 -27.05222202 0.08932693 -25.59008789 -0.13500977 C-23.36083347 -0.47903801 -21.13463891 -0.83940373 -18.90820312 -1.20117188 C-17.48453055 -1.42417242 -16.0607067 -1.64620977 -14.63671875 -1.8671875 C-13.34773682 -2.06916748 -12.05875488 -2.27114746 -10.73071289 -2.47924805 C-6.28502776 -2.88449068 -3.5435012 -2.77554104 0 0 Z " fill="#1F1F1F" transform="translate(1442.2890625,69.79296875)"/>
</svg>
